<svg xmlns="http://www.w3.org/2000/svg" width="860" height="384" viewBox="0 0 860 384" font-family="ui-sans-serif, -apple-system, Segoe UI, Roboto, sans-serif" role="img" aria-label="createSpyFromClass(UserService) returns a fully-typed Spy of UserService whose methods carry resolveWith / nextWith / calledWith helpers — one API across Vitest, Bun and node:test">
  <defs>
    <linearGradient id="bg" x1="0" y1="0" x2="1" y2="1">
      <stop offset="0" stop-color="#ffffff"/>
      <stop offset="1" stop-color="#eef2fb"/>
    </linearGradient>
    <linearGradient id="card" x1="0" y1="0" x2="0" y2="1">
      <stop offset="0" stop-color="#ffffff"/>
      <stop offset="1" stop-color="#f5f7fc"/>
    </linearGradient>
    <linearGradient id="brand" x1="0" y1="0" x2="1" y2="0">
      <stop offset="0" stop-color="#6E9F18"/>
      <stop offset="1" stop-color="#1f6feb"/>
    </linearGradient>
    <linearGradient id="arrow" x1="0" y1="0" x2="1" y2="0">
      <stop offset="0" stop-color="#5a91e6"/>
      <stop offset="1" stop-color="#1f6feb"/>
    </linearGradient>
    <linearGradient id="vitest" x1="0" y1="0" x2="0" y2="1">
      <stop offset="0" stop-color="#FCC72B"/>
      <stop offset="1" stop-color="#729B1B"/>
    </linearGradient>
    <linearGradient id="node" x1="0" y1="0" x2="0" y2="1">
      <stop offset="0" stop-color="#83CD29"/>
      <stop offset="1" stop-color="#3C873A"/>
    </linearGradient>
    <filter id="shadow" x="-20%" y="-20%" width="140%" height="160%">
      <feDropShadow dx="0" dy="6" stdDeviation="10" flood-color="#1f2a44" flood-opacity="0.14"/>
    </filter>
    <style>
      @media (prefers-color-scheme: dark) {
        .bg { fill: #0d1117; }
        .card { fill: #161b22; stroke: #30363d; filter: none; }
        .title { fill: #e6edf3; }
        .sub { fill: #8b949e; }
        .fn { fill: #d2a8ff; }
        .type { fill: #7ee787; }
        .punct { fill: #8b949e; }
        .method { fill: #79c0ff; }
        .sep { fill: #6e7681; }
        .div { stroke: #21262d; }
        .tag { fill: #21262d; stroke: #30363d; }
        .tagtx { fill: #8b949e; }
        .arrow { stroke: url(#arrow); }
        .bR { fill: #3d1e00; stroke: #bc4c00; } .bRt { fill: #ffa657; }
        .bN { fill: #3d1327; stroke: #bf3989; } .bNt { fill: #f778ba; }
        .bC { fill: #0a2a43; stroke: #1f6feb; } .bCt { fill: #79c0ff; }
        .cV { fill: #1b2410; stroke: #729B1B; } .cVt { fill: #b7d75a; }
        .cB { fill: #3d1327; stroke: #bf3989; } .cBt { fill: #f778ba; }
        .cN { fill: #0b2e13; stroke: #3fb950; } .cNt { fill: #7ee787; }
      }
    </style>
  </defs>

  <rect class="bg" width="860" height="384" fill="url(#bg)" rx="20"/>

  <!-- header -->
  <text class="title" x="40" y="54" font-size="30" font-weight="700" fill="#0d1117">vitest-auto-spy</text>
  <rect x="40" y="66" width="92" height="5" rx="2.5" fill="url(#brand)"/>
  <text class="sub" x="40" y="90" font-size="15" fill="#57606a">One class-based API. Every Vitest-compatible runtime.</text>

  <!-- source: the class + call (single line) -->
  <rect class="card" x="40" y="100" width="320" height="168" rx="16" fill="url(#card)" stroke="#d0d7de" filter="url(#shadow)"/>
  <rect class="tag" x="64" y="138" width="56" height="24" rx="12" fill="#eef1f6" stroke="#d0d7de"/>
  <text class="tagtx" x="92" y="154" font-size="12" font-weight="600" text-anchor="middle" fill="#6e7781">class</text>
  <text x="64" y="204" font-size="13.5" font-family="ui-monospace, SFMono-Regular, Menlo, monospace"><tspan class="fn" fill="#8250df">createSpyFromClass</tspan><tspan class="punct" fill="#6e7781">(</tspan><tspan class="type" fill="#0550ae">UserService</tspan><tspan class="punct" fill="#6e7781">)</tspan></text>
  <text class="sub" x="64" y="230" font-size="12.5" fill="#57606a">reads every method — no hand-written spies</text>

  <!-- arrow (nudged 5px left) -->
  <line class="arrow" x1="363" y1="184" x2="377" y2="184" stroke="url(#arrow)" stroke-width="3" stroke-linecap="round"/>
  <polygon points="377,177 387,184 377,191" fill="#1f6feb"/>

  <!-- fully-typed spy with per-method helpers -->
  <rect class="card" x="400" y="100" width="420" height="168" rx="16" fill="url(#card)" stroke="#d0d7de" filter="url(#shadow)"/>
  <text class="title" x="424" y="140" font-size="17" font-weight="700" fill="#0d1117">Spy&lt;UserService&gt;</text>
  <rect class="tag" x="700" y="122" width="96" height="24" rx="12" fill="#eef1f6" stroke="#d0d7de"/>
  <text class="tagtx" x="748" y="138" font-size="12" font-weight="600" text-anchor="middle" fill="#6e7781">fully typed</text>
  <line class="div" x1="424" y1="156" x2="796" y2="156" stroke="#e5e9f0" stroke-width="1"/>

  <g font-family="ui-monospace, SFMono-Regular, Menlo, monospace" font-size="14">
    <text class="method" x="424" y="188" fill="#0953a8">getUser()</text>
    <text class="sep" x="600" y="188" font-size="14" text-anchor="middle" fill="#8c959f">&#8250;</text>
    <rect class="bR" x="628" y="173" width="168" height="22" rx="11" fill="#fff1e5" stroke="#f0a868"/>
    <text class="bRt" x="712" y="188" font-size="12.5" font-weight="600" text-anchor="middle" fill="#bc4c00">resolveWith</text>

    <text class="method" x="424" y="214" fill="#0953a8">items$</text>
    <text class="sep" x="600" y="214" font-size="14" text-anchor="middle" fill="#8c959f">&#8250;</text>
    <rect class="bN" x="628" y="199" width="168" height="22" rx="11" fill="#ffeff7" stroke="#f472b6"/>
    <text class="bNt" x="712" y="214" font-size="12.5" font-weight="600" text-anchor="middle" fill="#bf3989">nextWith</text>

    <text class="method" x="424" y="240" fill="#0953a8">save()</text>
    <text class="sep" x="600" y="240" font-size="14" text-anchor="middle" fill="#8c959f">&#8250;</text>
    <rect class="bC" x="628" y="225" width="168" height="22" rx="11" fill="#ddf4ff" stroke="#54aeff"/>
    <text class="bCt" x="712" y="240" font-size="12.5" font-weight="600" text-anchor="middle" fill="#0969da">calledWith</text>
  </g>

  <!-- runtime chips with brand marks -->
  <g>
    <!-- Vitest -->
    <rect class="cV" x="40" y="312" width="240" height="48" rx="24" fill="#f4f9e6" stroke="#a9c14f"/>
    <g transform="translate(58,324)"><path d="M13 0 L3 14 L10 14 L8 24 L20 9 L12 9 Z" fill="url(#vitest)"/></g>
    <text class="cVt" x="172" y="341" font-size="17" font-weight="600" text-anchor="middle" fill="#5c7a12">Vitest</text>

    <!-- Bun -->
    <rect class="cB" x="300" y="312" width="240" height="48" rx="24" fill="#fbe9f4" stroke="#f472b6"/>
    <g transform="translate(316,324)">
      <rect x="1" y="2" width="24" height="21" rx="10.5" fill="#f7ede1" stroke="#e2d3c0" stroke-width="1"/>
      <ellipse cx="9" cy="12" rx="1.5" ry="2.3" fill="#20232a"/>
      <ellipse cx="17" cy="12" rx="1.5" ry="2.3" fill="#20232a"/>
      <circle cx="6" cy="15.5" r="2" fill="#f9a8d4"/>
      <circle cx="20" cy="15.5" r="2" fill="#f9a8d4"/>
      <path d="M11 16 Q13 18 15 16" stroke="#20232a" stroke-width="1" fill="none" stroke-linecap="round"/>
    </g>
    <text class="cBt" x="432" y="341" font-size="17" font-weight="600" text-anchor="middle" fill="#be185d">Bun&#160;&#160;(bun:test)</text>

    <!-- node:test -->
    <rect class="cN" x="560" y="312" width="240" height="48" rx="24" fill="#e6f4ea" stroke="#5aa469"/>
    <g transform="translate(578,324)"><path d="M12 0 L22.39 6 L22.39 18 L12 24 L1.61 18 L1.61 6 Z" fill="url(#node)" stroke="#3C873A" stroke-width="0.5"/></g>
    <text class="cNt" x="694" y="341" font-size="17" font-weight="600" text-anchor="middle" fill="#2f7d32">node:test</text>
  </g>
</svg>
